<svg width="335px" height="269px" viewBox="0 0 335 269" version="1.1" xmlns="http://www.w3.org/2000/svg" xmlns:xlink="http://www.w3.org/1999/xlink">
    <!-- Generator: Sketch 43.2 (39069) - http://www.bohemiancoding.com/sketch -->
    <desc>Created with Sketch.</desc>
    <defs>
        <polygon id="path-1" points="141.839 68.94 0 68.94 0 34.8225 0 0.705 141.839 0.705"></polygon>
    </defs>
    <g id="Page-1" stroke="none" stroke-width="1" fill="none" fill-rule="evenodd">
        <g id="Pushfor-logo_version-02">
            <path d="M246.684,78.938 C246.684,122.382 211.466,157.6 168.022,157.6 C124.578,157.6 89.36,122.382 89.36,78.938 C89.36,35.494 124.578,0.276 168.022,0.276 C211.466,0.276 246.684,35.494 246.684,78.938" id="Fill-1" fill="#41B1E6"></path>
            <polyline id="Fill-2" fill="#D1D2D2" points="190.494 48.865 160 79.359 129.507 48.865 160 18.372 190.494 48.865"></polyline>
            <polyline id="Fill-3" fill="#FFFFFF" points="190.494 48.865 129.507 109.852 160 140.345 220.987 79.358 190.494 48.865"></polyline>
            <g id="Group-8" transform="translate(0.000000, 200.000000)">
                <mask id="mask-2" fill="white">
                    <use xlink:href="#path-1"></use>
                </mask>
                <g id="Clip-5"></g>
                <path d="M8.426,30.996 L19.483,30.996 C21.12,30.996 22.744,30.858 24.353,30.583 C25.962,30.308 27.394,29.803 28.651,29.069 C29.909,28.334 30.919,27.279 31.681,25.902 C32.439,24.525 32.822,22.736 32.822,20.533 C32.822,18.33 32.439,16.54 31.681,15.163 C30.919,13.787 29.909,12.731 28.651,11.997 C27.394,11.263 25.962,10.758 24.353,10.483 C22.744,10.207 21.12,10.069 19.483,10.069 L8.426,10.069 L8.426,30.996 Z M0,2.357 L21.85,2.357 C25.831,2.357 29.104,2.923 31.681,4.055 C34.254,5.19 36.288,6.625 37.778,8.368 C39.271,10.115 40.308,12.074 40.896,14.245 C41.48,16.418 41.774,18.514 41.774,20.533 C41.774,22.552 41.48,24.651 40.896,26.82 C40.308,28.995 39.271,30.95 37.778,32.697 C36.288,34.441 34.254,35.879 31.681,37.011 C29.104,38.143 25.831,38.709 21.85,38.709 L8.426,38.709 L8.426,67.348 L0,67.348 L0,2.357 L0,2.357 Z" id="Fill-4" fill="#41B1E6" mask="url(#mask-2)"></path>
                <path d="M56.117,2.357 L56.117,42.196 C56.117,44.216 56.38,46.312 56.906,48.484 C57.433,50.656 58.311,52.66 59.54,54.495 C60.767,56.334 62.376,57.833 64.365,58.996 C66.354,60.158 68.81,60.74 71.738,60.74 C74.663,60.74 77.12,60.158 79.108,58.996 C81.097,57.833 82.706,56.334 83.936,54.495 C85.163,52.66 86.041,50.656 86.567,48.484 C87.094,46.312 87.357,44.216 87.357,42.196 L87.357,2.357 L95.782,2.357 L95.782,43.573 C95.782,47.367 95.167,50.812 93.938,53.899 C92.711,56.992 91.013,59.669 88.849,61.933 C86.684,64.197 84.138,65.941 81.213,67.165 C78.288,68.388 75.128,69 71.738,69 C68.342,69 65.185,68.388 62.26,67.165 C59.332,65.941 56.79,64.197 54.624,61.933 C52.461,59.669 50.763,56.992 49.536,53.899 C48.306,50.812 47.691,47.367 47.691,43.573 L47.691,2.357 L56.117,2.357" id="Fill-6" fill="#41B1E6" mask="url(#mask-2)"></path>
                <path d="M107.354,53.761 C108.874,56.151 110.82,57.91 113.188,59.042 C115.556,60.174 118,60.74 120.515,60.74 C121.919,60.74 123.351,60.51 124.817,60.051 C126.276,59.592 127.607,58.904 128.809,57.986 C130.005,57.069 130.987,55.936 131.749,54.587 C132.508,53.244 132.887,51.684 132.887,49.906 C132.887,47.397 132.129,45.486 130.608,44.17 C129.085,42.854 127.197,41.753 124.948,40.866 C122.694,39.979 120.237,39.122 117.575,38.296 C114.913,37.47 112.456,36.323 110.205,34.854 C107.95,33.385 106.066,31.409 104.545,28.931 C103.022,26.453 102.263,23.103 102.263,18.88 C102.263,16.984 102.657,14.965 103.447,12.823 C104.236,10.681 105.478,8.724 107.176,6.946 C108.874,5.174 111.052,3.687 113.714,2.495 C116.376,1.301 119.579,0.705 123.324,0.705 C126.717,0.705 129.963,1.197 133.065,2.173 C136.164,3.152 138.884,5.144 141.225,8.139 L134.38,14.659 C133.328,12.945 131.835,11.569 129.905,10.528 C127.974,9.488 125.78,8.968 123.324,8.968 C120.983,8.968 119.037,9.29 117.486,9.932 C115.938,10.574 114.693,11.4 113.757,12.41 C112.821,13.42 112.163,14.506 111.783,15.668 C111.401,16.831 111.214,17.902 111.214,18.88 C111.214,21.634 111.973,23.745 113.494,25.214 C115.014,26.682 116.902,27.875 119.154,28.793 C121.406,29.711 123.865,30.537 126.527,31.271 C129.189,32.006 131.645,33.034 133.897,34.349 C136.149,35.665 138.037,37.439 139.557,39.673 C141.078,41.906 141.839,44.981 141.839,48.897 C141.839,52.018 141.27,54.835 140.129,57.344 C138.988,59.852 137.452,61.964 135.522,63.677 C133.591,65.39 131.309,66.706 128.678,67.624 C126.044,68.541 123.235,69 120.252,69 C116.272,69 112.499,68.266 108.932,66.797 C105.362,65.329 102.526,63.065 100.421,60.005 L107.354,53.761" id="Fill-7" fill="#41B1E6" mask="url(#mask-2)"></path>
            </g>
            <polyline id="Fill-9" fill="#41B1E6" points="147.159 202.357 155.584 202.357 155.584 229.344 187.791 229.344 187.791 202.357 196.214 202.357 196.214 267.348 187.791 267.348 187.791 237.607 155.584 237.607 155.584 267.348 147.159 267.348 147.159 202.357"></polyline>
            <polyline id="Fill-10" fill="#41B1E6" points="202.834 202.149 242.045 202.149 242.045 210.442 211.295 210.442 211.295 229.196 231.346 229.196 231.346 237.511 211.295 237.511 211.295 267.404 202.834 267.404 202.834 202.149"></polyline>
            <path d="M334.972,267.331 L316.884,237.346 C316.884,237.346 330.459,235.987 331.976,221.589 C331.976,221.589 333.863,204.558 316.253,202.304 L298.149,202.304 L298.149,209.951 L311.828,209.951 C311.828,209.951 323.148,209.445 323.149,220.325 C323.149,220.325 324.996,232.534 306.031,230.7 L304.676,230.7 L324.258,267.331 L334.972,267.331" id="Fill-11" fill="#41B1E6"></path>
            <path d="M268.852,202.08 C251.468,202.08 237.376,216.686 237.376,234.705 C237.376,252.723 251.468,267.329 268.852,267.329 C286.233,267.329 300.325,252.723 300.325,234.705 C300.325,216.686 286.233,202.08 268.852,202.08 Z M268.852,209.931 C281.876,209.931 292.474,221.045 292.474,234.705 C292.474,248.365 281.876,259.478 268.852,259.478 C255.825,259.478 245.227,248.365 245.227,234.705 C245.227,221.045 255.825,209.931 268.852,209.931 L268.852,209.931 Z" id="Fill-12" fill="#41B1E6"></path>
        </g>
    </g>
</svg>
